<svg xmlns="http://www.w3.org/2000/svg" width="512" height="512" viewBox="0 0 512 512" fill="none">
  <rect width="512" height="512" fill="#FFFFFF"></rect>
  <path d="M 304.82 133.10 A 141.91 141.91 0 1 0 304.82 378.90" fill="none" stroke="#000000" stroke-width="40.546" stroke-linecap="round"></path><path d="M 282.54 210.01 Q 278.79 216.27 286.08 216.27 L 412.59 216.27 Q 419.89 216.27 423.64 210.01 L 436.57 188.47 Q 440.32 182.21 433.02 182.21 L 306.52 182.21 Q 299.22 182.21 295.47 188.47 Z" fill="#000000"></path><path d="M 248.48 266.77 Q 244.73 273.03 252.03 273.03 L 378.53 273.03 Q 385.83 273.03 389.58 266.77 L 402.51 245.23 Q 406.26 238.97 398.96 238.97 L 272.46 238.97 Q 265.16 238.97 261.41 245.23 Z" fill="#000000"></path><path d="M 214.42 323.53 Q 210.67 329.79 217.97 329.79 L 344.47 329.79 Q 351.77 329.79 355.52 323.53 L 368.45 301.99 Q 372.20 295.73 364.91 295.73 L 238.40 295.73 Q 231.11 295.73 227.35 301.99 Z" fill="#000000"></path>
</svg>