<svg xmlns="http://www.w3.org/2000/svg" width="512" height="512" viewBox="0 0 512 512">
  
  <path class="m" d="M 315.67 105.79 A 173.44 173.44 0 1 0 315.67 406.21" fill="none" stroke="#0A0A0A" stroke-width="49.556" stroke-linecap="round"></path>
  <path class="m" fill="#0A0A0A" d="M 288.44 199.79 Q 283.85 207.44 292.77 207.44 L 447.38 207.44 Q 456.30 207.44 460.89 199.79 L 476.69 173.46 Q 481.28 165.81 472.36 165.81 L 317.75 165.81 Q 308.83 165.81 304.24 173.46 Z"></path>
  <path class="m" fill="#0A0A0A" d="M 246.81 269.16 Q 242.22 276.81 251.14 276.81 L 405.76 276.81 Q 414.68 276.81 419.27 269.16 L 435.06 242.84 Q 439.65 235.19 430.73 235.19 L 276.12 235.19 Q 267.20 235.19 262.61 242.84 Z"></path>
  <path class="m" fill="#0A0A0A" d="M 205.19 338.54 Q 200.60 346.19 209.52 346.19 L 364.13 346.19 Q 373.05 346.19 377.64 338.54 L 393.44 312.21 Q 398.03 304.56 389.11 304.56 L 234.49 304.56 Q 225.57 304.56 220.98 312.21 Z"></path>
</svg>