<svg xmlns="http://www.w3.org/2000/svg" width="512" height="512" viewBox="0 0 512 512">
  <path d="M 512.00 256.00 C 512.00 302.78 511.16 365.79 509.41 396.34 C 507.67 426.89 505.11 427.38 501.54 439.31 C 497.97 451.24 493.60 459.81 488.00 467.92 C 482.40 476.03 476.03 482.40 467.92 488.00 C 459.81 493.60 451.24 497.97 439.31 501.54 C 427.38 505.11 426.89 507.67 396.34 509.41 C 365.79 511.16 302.78 512.00 256.00 512.00 C 209.22 512.00 146.21 511.16 115.66 509.41 C 85.11 507.67 84.62 505.11 72.69 501.54 C 60.76 497.97 52.19 493.60 44.08 488.00 C 35.97 482.40 29.60 476.03 24.00 467.92 C 18.40 459.81 14.03 451.24 10.46 439.31 C 6.89 427.38 4.33 426.89 2.59 396.34 C 0.84 365.79 0.00 302.78 0.00 256.00 C 0.00 209.22 0.84 146.21 2.59 115.66 C 4.33 85.11 6.89 84.62 10.46 72.69 C 14.03 60.76 18.40 52.19 24.00 44.08 C 29.60 35.97 35.97 29.60 44.08 24.00 C 52.19 18.40 60.76 14.03 72.69 10.46 C 84.62 6.89 85.11 4.33 115.66 2.59 C 146.21 0.84 209.22 0.00 256.00 0.00 C 302.78 -0.00 365.79 0.84 396.34 2.59 C 426.89 4.33 427.38 6.89 439.31 10.46 C 451.24 14.03 459.81 18.40 467.92 24.00 C 476.03 29.60 482.40 35.97 488.00 44.08 C 493.60 52.19 497.97 60.76 501.54 72.69 C 505.11 84.62 507.67 85.11 509.41 115.66 C 511.16 146.21 512.00 209.22 512.00 256.00 Z" fill="#000000"></path><path d="M 293.29 162.12 A 108.40 108.40 0 1 0 293.29 349.88" fill="none" stroke="#FFFFFF" stroke-width="30.972" stroke-linecap="round"></path><path d="M 276.27 220.87 Q 273.41 225.65 278.98 225.65 L 375.61 225.65 Q 381.19 225.65 384.06 220.87 L 393.93 204.41 Q 396.80 199.63 391.22 199.63 L 294.59 199.63 Q 289.02 199.63 286.15 204.41 Z" fill="#FFFFFF"></path><path d="M 250.26 264.23 Q 247.39 269.01 252.96 269.01 L 349.60 269.01 Q 355.17 269.01 358.04 264.23 L 367.91 247.77 Q 370.78 242.99 365.21 242.99 L 268.57 242.99 Q 263.00 242.99 260.13 247.77 Z" fill="#FFFFFF"></path><path d="M 224.24 307.59 Q 221.37 312.37 226.95 312.37 L 323.58 312.37 Q 329.16 312.37 332.02 307.59 L 341.90 291.13 Q 344.77 286.35 339.19 286.35 L 242.56 286.35 Q 236.98 286.35 234.11 291.13 Z" fill="#FFFFFF"></path>
</svg>